<svg width="43" height="43" viewBox="0 0 43 43" fill="none" xmlns="http://www.w3.org/2000/svg">
<path d="M9.23162 23.8757L21.5807 11.524C22.7147 10.39 24.2528 9.75288 25.8565 9.75288C27.4602 9.75288 28.9983 10.39 30.1323 11.524C31.2663 12.658 31.9034 14.196 31.9034 15.7998C31.9034 17.4035 31.2663 18.9416 30.1323 20.0756L15.8832 34.3274C15.6973 34.52 15.475 34.6737 15.2291 34.7794C14.9833 34.8852 14.7188 34.9409 14.4512 34.9434C14.1835 34.9458 13.9181 34.8949 13.6703 34.7937C13.4226 34.6925 13.1975 34.5429 13.0081 34.3537C12.8188 34.1646 12.669 33.9396 12.5675 33.6919C12.4661 33.4443 12.415 33.1789 12.4172 32.9113C12.4194 32.6436 12.4748 32.3791 12.5804 32.1331C12.6859 31.8872 12.8393 31.6647 13.0317 31.4787L27.2836 17.2242C27.6396 16.8421 27.8334 16.3367 27.8242 15.8145C27.815 15.2923 27.6035 14.7941 27.2342 14.4248C26.8649 14.0555 26.3666 13.844 25.8445 13.8348C25.3223 13.8255 24.8169 14.0194 24.4348 14.3754L10.1803 28.6272C9.04629 29.7612 8.40921 31.2993 8.40921 32.903C8.40921 34.5068 9.04629 36.0448 10.1803 37.1789C11.3143 38.3129 12.8524 38.95 14.4561 38.95C16.0599 38.95 17.5979 38.3129 18.7319 37.1789L32.9864 22.927C34.8767 21.0368 35.9386 18.473 35.9386 15.7998C35.9386 13.1266 34.8767 10.5628 32.9864 8.67254C31.0962 6.78228 28.5324 5.72034 25.8592 5.72034C23.1859 5.72034 20.6222 6.78228 18.7319 8.67254L6.38018 21.0243C6.18758 21.2101 6.03393 21.4325 5.92817 21.6783C5.82242 21.9242 5.7667 22.1887 5.76424 22.4563C5.76179 22.7239 5.81267 22.9894 5.9139 23.2371C6.01513 23.4849 6.16469 23.71 6.35385 23.8993C6.54301 24.0887 6.76799 24.2385 7.01565 24.3399C7.26332 24.4414 7.52871 24.4925 7.79634 24.4903C8.06398 24.4881 8.32849 24.4326 8.57446 24.3271C8.82042 24.2216 9.04559 24.0682 9.23162 23.8757Z" fill="white"/>
</svg>
