<svg width="43" height="43" viewBox="0 0 43 43" fill="none" xmlns="http://www.w3.org/2000/svg">
<path d="M9.23156 23.8757L21.5806 11.524C22.7146 10.39 24.2527 9.75288 25.8564 9.75288C27.4602 9.75288 28.9982 10.39 30.1322 11.524C31.2663 12.658 31.9033 14.196 31.9033 15.7998C31.9033 17.4035 31.2663 18.9416 30.1322 20.0756L15.8831 34.3274C15.6973 34.52 15.4749 34.6737 15.2291 34.7794C14.9832 34.8852 14.7187 34.9409 14.4511 34.9434C14.1835 34.9458 13.918 34.8949 13.6703 34.7937C13.4225 34.6925 13.1974 34.5429 13.0081 34.3537C12.8187 34.1646 12.669 33.9396 12.5675 33.6919C12.466 33.4443 12.4149 33.1789 12.4171 32.9113C12.4193 32.6436 12.4748 32.3791 12.5803 32.1331C12.6858 31.8872 12.8393 31.6647 13.0317 31.4787L27.2835 17.2242C27.6395 16.8421 27.8334 16.3367 27.8242 15.8145C27.8149 15.2923 27.6034 14.7941 27.2341 14.4248C26.8648 14.0555 26.3666 13.844 25.8444 13.8348C25.3222 13.8255 24.8168 14.0194 24.4347 14.3754L10.1802 28.6272C9.04623 29.7612 8.40915 31.2993 8.40915 32.903C8.40915 34.5068 9.04623 36.0448 10.1802 37.1789C11.3143 38.3129 12.8523 38.95 14.4561 38.95C16.0598 38.95 17.5979 38.3129 18.7319 37.1789L32.9864 22.927C34.8766 21.0368 35.9386 18.473 35.9386 15.7998C35.9386 13.1266 34.8766 10.5628 32.9864 8.67254C31.0961 6.78228 28.5324 5.72034 25.8591 5.72034C23.1859 5.72034 20.6221 6.78228 18.7319 8.67254L6.38012 21.0243C6.18752 21.2101 6.03386 21.4325 5.92811 21.6783C5.82236 21.9242 5.76663 22.1887 5.76418 22.4563C5.76173 22.7239 5.81261 22.9894 5.91384 23.2371C6.01507 23.4849 6.16463 23.71 6.35379 23.8993C6.54295 24.0887 6.76793 24.2385 7.01559 24.3399C7.26326 24.4414 7.52865 24.4925 7.79628 24.4903C8.06392 24.4881 8.32843 24.4326 8.57439 24.3271C8.82036 24.2216 9.04553 24.0681 9.23156 23.8757Z" fill="white"/>
</svg>
