<svg width="44" height="44" viewBox="0 0 44 44" fill="none" xmlns="http://www.w3.org/2000/svg">
<path d="M24.3833 31.671C24.0166 31.3043 23.8406 30.8612 23.8553 30.3418C23.8711 29.8224 24.0624 29.3793 24.4291 29.0126L29.6083 23.8335H9.16659C8.64714 23.8335 8.21142 23.6575 7.85942 23.3055C7.50864 22.9547 7.33325 22.5196 7.33325 22.0001C7.33325 21.4807 7.50864 21.045 7.85942 20.693C8.21142 20.3422 8.64714 20.1668 9.16659 20.1668H29.6083L24.3833 14.9418C24.0166 14.5751 23.8333 14.1394 23.8333 13.6346C23.8333 13.1311 24.0166 12.696 24.3833 12.3293C24.7499 11.9626 25.1856 11.7793 25.6904 11.7793C26.194 11.7793 26.6291 11.9626 26.9958 12.3293L35.3833 20.7168C35.5666 20.9001 35.6968 21.0987 35.7738 21.3126C35.8495 21.5265 35.8874 21.7557 35.8874 22.0001C35.8874 22.2446 35.8495 22.4737 35.7738 22.6876C35.6968 22.9015 35.5666 23.1001 35.3833 23.2835L26.9499 31.7168C26.6138 32.0529 26.194 32.221 25.6904 32.221C25.1856 32.221 24.7499 32.0376 24.3833 31.671Z" fill="black"/>
</svg>
