<svg width="44" height="44" viewBox="0 0 44 44" fill="none" xmlns="http://www.w3.org/2000/svg">
<path d="M24.3833 31.671C24.0167 31.3043 23.8407 30.8612 23.8553 30.3418C23.8712 29.8224 24.0625 29.3793 24.4292 29.0126L29.6083 23.8335H9.16668C8.64723 23.8335 8.21151 23.6575 7.85951 23.3055C7.50873 22.9547 7.33334 22.5196 7.33334 22.0001C7.33334 21.4807 7.50873 21.045 7.85951 20.693C8.21151 20.3422 8.64723 20.1668 9.16668 20.1668H29.6083L24.3833 14.9418C24.0167 14.5751 23.8333 14.1394 23.8333 13.6346C23.8333 13.1311 24.0167 12.696 24.3833 12.3293C24.75 11.9626 25.1857 11.7793 25.6905 11.7793C26.1941 11.7793 26.6292 11.9626 26.9958 12.3293L35.3833 20.7168C35.5667 20.9001 35.6968 21.0987 35.7738 21.3126C35.8496 21.5265 35.8875 21.7557 35.8875 22.0001C35.8875 22.2446 35.8496 22.4737 35.7738 22.6876C35.6968 22.9015 35.5667 23.1001 35.3833 23.2835L26.95 31.7168C26.6139 32.0529 26.1941 32.221 25.6905 32.221C25.1857 32.221 24.75 32.0376 24.3833 31.671Z" fill="black"/>
</svg>
