<svg width="44" height="44" viewBox="0 0 44 44" fill="none" xmlns="http://www.w3.org/2000/svg">
<path d="M24.3833 31.6707C24.0166 31.3041 23.8406 30.861 23.8553 30.3416C23.8711 29.8221 24.0624 29.3791 24.4291 29.0124L29.6083 23.8332H9.16659C8.64714 23.8332 8.21142 23.6572 7.85942 23.3052C7.50864 22.9544 7.33325 22.5193 7.33325 21.9999C7.33325 21.4804 7.50864 21.0447 7.85942 20.6927C8.21142 20.3419 8.64714 20.1666 9.16659 20.1666H29.6083L24.3833 14.9416C24.0166 14.5749 23.8333 14.1392 23.8333 13.6344C23.8333 13.1308 24.0166 12.6957 24.3833 12.3291C24.7499 11.9624 25.1856 11.7791 25.6904 11.7791C26.194 11.7791 26.6291 11.9624 26.9958 12.3291L35.3833 20.7166C35.5666 20.8999 35.6968 21.0985 35.7738 21.3124C35.8495 21.5263 35.8874 21.7554 35.8874 21.9999C35.8874 22.2443 35.8495 22.4735 35.7738 22.6874C35.6968 22.9013 35.5666 23.0999 35.3833 23.2832L26.9499 31.7166C26.6138 32.0527 26.194 32.2207 25.6904 32.2207C25.1856 32.2207 24.7499 32.0374 24.3833 31.6707Z" fill="black"/>
</svg>
