<svg width="23" height="24" viewBox="0 0 23 24" fill="none" xmlns="http://www.w3.org/2000/svg">
<path d="M16.1294 17.7C15.8895 17.4111 15.7696 17.0831 15.7696 16.716C15.7696 16.3498 15.8895 16.0444 16.1294 15.8L18.5505 13.3333H9.16074C8.78995 13.3333 8.47936 13.2053 8.22896 12.9493C7.9777 12.6942 7.85206 12.3778 7.85206 12C7.85206 11.6222 7.9777 11.3053 8.22896 11.0493C8.47936 10.7942 8.78995 10.6667 9.16074 10.6667H18.5505L16.1294 8.2C15.8677 7.93333 15.7368 7.61689 15.7368 7.25067C15.7368 6.88356 15.8677 6.56667 16.1294 6.3C16.3694 6.03333 16.6695 5.9 17.0298 5.9C17.3893 5.9 17.689 6.02222 17.9289 6.26667L22.6401 11.0667C22.771 11.2 22.8639 11.3444 22.9189 11.5C22.973 11.6556 23 11.8222 23 12C23 12.1778 22.973 12.3444 22.9189 12.5C22.8639 12.6556 22.771 12.8 22.6401 12.9333L17.9289 17.7333C17.6453 18.0222 17.3347 18.1498 16.9971 18.116C16.6586 18.0831 16.3694 17.9444 16.1294 17.7ZM2.61735 24C1.89758 24 1.28119 23.7391 0.768193 23.2173C0.256064 22.6947 0 22.0667 0 21.3333V2.66667C0 1.93333 0.256064 1.30533 0.768193 0.782667C1.28119 0.260889 1.89758 0 2.61735 0H10.4694C10.8402 0 11.1512 0.127555 11.4025 0.382667C11.6529 0.638667 11.7781 0.955556 11.7781 1.33333C11.7781 1.71111 11.6529 2.02756 11.4025 2.28267C11.1512 2.53867 10.8402 2.66667 10.4694 2.66667H2.61735V21.3333H10.4694C10.8402 21.3333 11.1512 21.4613 11.4025 21.7173C11.6529 21.9724 11.7781 22.2889 11.7781 22.6667C11.7781 23.0444 11.6529 23.3609 11.4025 23.616C11.1512 23.872 10.8402 24 10.4694 24H2.61735Z" fill="white"/>
</svg>
